<svg width="439" height="436" viewBox="0 0 439 436" fill="none" xmlns="http://www.w3.org/2000/svg">
<path d="M427.5 218C427.5 331.973 334.45 424.5 219.5 424.5C104.55 424.5 11.5 331.973 11.5 218C11.5 104.027 104.55 11.5 219.5 11.5C334.45 11.5 427.5 104.027 427.5 218Z" stroke="black" stroke-width="23"/>
<path d="M297.049 88.9231C293.545 87.4462 289.893 86.2154 286.091 85.1692V159.2C277.593 156.677 268.871 155.385 260 155.385C245.836 155.385 231.822 158.708 219 165.108V90.6462C206.924 84.9231 192.984 81.5385 178 81.5385C164.656 81.5385 152.058 84.2462 140.951 88.9231C138.491 89.9077 137 92.0615 137 94.3385V168.677C137 172.246 140.504 174.769 144.455 174.769C145.647 174.769 146.84 174.523 148.033 174.031C157.053 170.154 167.191 167.692 178 167.692C193.431 167.692 207.669 172.738 219 180C230.331 172.738 244.569 167.692 260 167.692C270.809 167.692 280.947 170.154 289.967 174.092C291.16 174.585 292.353 174.831 293.545 174.831C297.422 174.831 301 172.308 301 168.738V94.3385C301 92.0615 299.509 89.9077 297.049 88.9231ZM204.091 159.2C195.593 156.677 186.871 155.385 178 155.385C169.129 155.385 160.407 156.677 151.909 159.2V98.2154C160.184 95.3231 168.905 93.8462 178 93.8462C186.945 93.8462 195.816 95.3846 204.091 98.2769V159.2ZM271.182 60L233.909 90.7692V149.231L271.182 121.538V60Z" fill="black"/>
<text x="220" y="280" font-family="Arial, sans-serif" font-size="120" fill="black" text-anchor="middle" dominant-baseline="middle">A-Ö</text>
</svg>
